<svg id="Layer_3" data-name="Layer 3" xmlns="http://www.w3.org/2000/svg" viewBox="0 0 397.13 159.57" preserveAspectRatio="none">
  <g>
    <path d="M303,783.81c3.45-9.61,9.64-26.33,23.45-43.73-4.9.66-12.22,1.72-24,3.65-26,4.25-39.13,6.45-47.47,10-3.81,1.63-40,17.54-40.09,38.25h85.4C301.06,789.35,302,786.62,303,783.81Z" transform="translate(-214.87 -632.43)" fill="#f395ac"/>
    <path d="M485.46,664.08c18-10.45,43.53-21.46,79.37-27.38-37,6.1-48.24,2.55-72.51,7.33-43.9,8.66-75.37,33.74-86,42.2-4.82,3.84-9,7.54-12.78,11.07,17.22-3.31,34.61-3.75,59.73-14.76C468.2,676,472.62,671.52,485.46,664.08Z" transform="translate(-214.87 -632.43)" fill="#f395ac"/>
    <path d="M564.83,636.7c-35.84,5.92-61.34,16.93-79.37,27.38-12.84,7.44-17.26,11.91-32.17,18.46-25.12,11-42.51,11.45-59.73,14.76A96.41,96.41,0,0,0,359.92,710a123.58,123.58,0,0,0-29.54,25.32c-1.39,1.6-2.7,3.19-4,4.79-13.81,17.4-20,34.12-23.45,43.73-1,2.81-1.9,5.54-2.69,8.19H612V632.43a338.23,338.23,0,0,0-46.87,4.23Z" transform="translate(-214.87 -632.43)" fill="#151825"/>
  </g>
</svg>
